# xmcd
#
# Track frame offsets: 
#        150
#        13197
#        22120
#        33475
#        43812
#        54130
#        65035
#        77180
#        87822
#        98812
#        109535
#        119162
#        130012
#        139737
#        148480
#        157895
#        167112
#        177882
#        189040
#        203780
#
# Disc length: 2892 seconds
#
# Revision: 0
# Processed by: cddbd v1.5.1PL0 Copyright (c) Steve Scherf et al.
# Submitted via: ExactAudioCopy v0.95a5
#
DISCID=160b4a14
DTITLE=Faron Young - Country Gold
DYEAR=1995
DGENRE=Country
TTITLE0=It's Four In The Morninig
TTITLE1=Alone With You
TTITLE2=Country Girl
TTITLE3=Live Fast, Love Hard, Die Young
TTITLE4=Hello Walls
TTITLE5=Wine Me Up
TTITLE6=Sweet Dreams
TTITLE7=If You Ain't Lovin'
TTITLE8=All Right
TTITLE9=Riverboat
TTITLE10=I've Got Five Dollars
TTITLE11=I Miss You Already (And You'rre Not Even Gone)
TTITLE12=Goin'  Steady
TTITLE13=That's The Way It's Gotta Be
TTITLE14=Backtrack
TTITLE15=The Comeback
TTITLE16=Three Days
TTITLE17=The Yellow Bandana
TTITLE18=Your Time's Comin'
TTITLE19=This Little Girl Of Mine
EXTD=
EXTT0=
EXTT1=
EXTT2=
EXTT3=
EXTT4=
EXTT5=
EXTT6=
EXTT7=
EXTT8=
EXTT9=
EXTT10=
EXTT11=
EXTT12=
EXTT13=
EXTT14=
EXTT15=
EXTT16=
EXTT17=
EXTT18=
EXTT19=
PLAYORDER=
